<?xml version="1.0" encoding="utf-8"?>
<!-- Generator: Adobe Illustrator 17.0.0, SVG Export Plug-In . SVG Version: 6.00 Build 0)  -->
<!DOCTYPE svg PUBLIC "-//W3C//DTD SVG 1.1//EN" "http://www.w3.org/Graphics/SVG/1.1/DTD/svg11.dtd">
<svg version="1.1" id="Layer_1" xmlns="http://www.w3.org/2000/svg" xmlns:xlink="http://www.w3.org/1999/xlink" x="0px" y="0px"
	 width="500px" height="500px" viewBox="0 0 500 500" enable-background="new 0 0 500 500" xml:space="preserve">
<path fill="#192132" d="M109.375,422.038h281.25c8.629,0,15.625,6.996,15.625,15.625l0,0c0,8.629-6.996,15.625-15.625,15.625
	h-281.25c-8.629,0-15.625-6.996-15.625-15.625l0,0C93.75,429.033,100.746,422.038,109.375,422.038z"/>
<path fill="#192132" d="M265.788,202.612V154.85c-0.245-8.716-7.51-15.582-16.225-15.337c-8.371,0.236-15.101,6.966-15.337,15.337
	v47.762C244.713,201.431,255.3,201.431,265.788,202.612z M110.262,326.562H62.5c-8.716,0.245-15.582,7.51-15.337,16.225
	c0.236,8.371,6.966,15.101,15.337,15.337h47.762C109.081,347.637,109.081,337.05,110.262,326.562z M437.5,326.562h-47.762
	c1.182,10.488,1.182,21.075,0,31.562H437.5c8.716-0.245,15.582-7.51,15.337-16.225C452.601,333.529,445.871,326.798,437.5,326.562z
	 M360,254.7l33.75-33.75c6.084-6.245,5.954-16.241-0.292-22.325c-6.13-5.972-15.903-5.972-22.033,0l-33.75,33.75
	C345.926,238.96,353.415,246.449,360,254.7z M162.35,232.375l-33.75-33.75c-6.238-6.092-16.233-5.974-22.325,0.264
	c-5.981,6.124-5.992,15.898-0.025,22.036l33.75,33.75C146.594,246.431,154.091,238.951,162.35,232.375L162.35,232.375z
	 M171.875,342.35c-0.009-43.147,34.962-78.132,78.109-78.141s78.132,34.962,78.141,78.109c0.004,16.981-5.526,33.5-15.75,47.057
	h36.375c25.971-54.538,2.813-119.804-51.725-145.775s-119.804-2.813-145.775,51.725c-14.167,29.749-14.167,64.3,0,94.05h36.375
	C177.384,375.839,171.853,359.324,171.875,342.35z"/>
</svg>
