<?xml version="1.0" encoding="utf-8"?>
<!-- Generator: Adobe Illustrator 25.2.1, SVG Export Plug-In . SVG Version: 6.00 Build 0)  -->
<svg version="1.1" id="Layer_1" xmlns="http://www.w3.org/2000/svg" xmlns:xlink="http://www.w3.org/1999/xlink" x="0px" y="0px"
	 viewBox="0 0 512 512" style="enable-background:new 0 0 512 512;" xml:space="preserve">
<path d="M233.89,268.71c-4.34,4.43-8.39,8.62-12.51,12.74c-2.47,2.47-5.2,2.27-7.22-0.45c-1.4-1.88-1.27-3.79,0.36-5.43
	c5.51-5.56,11.05-11.11,16.65-16.58c1.94-1.89,4.02-1.7,6.14,0.39c3.97,3.92,7.9,7.89,11.59,11.58c9.33-9.32,18.6-18.57,28.47-28.42
	c-0.87-0.68-2.27-1.51-3.29-2.67c-0.61-0.69-1.03-2-0.79-2.83c0.2-0.68,1.45-1.43,2.28-1.49c4.73-0.35,9.48-0.52,14.23-0.7
	c2.1-0.08,3.04,1.08,2.95,3.12c-0.2,4.41-0.31,8.83-0.71,13.23c-0.09,1.04-0.97,2.41-1.87,2.83c-0.69,0.32-2.13-0.41-2.93-1.05
	c-1.08-0.87-1.88-2.1-2.93-3.33c-0.95,0.86-1.57,1.37-2.13,1.93c-9.61,9.6-19.21,19.21-28.82,28.8c-3.04,3.04-4.78,3.03-7.8,0.02
	C241.79,276.65,238.04,272.87,233.89,268.71z"/>
</svg>
