<?xml version="1.0" encoding="utf-8"?>
<!-- Generator: Adobe Illustrator 25.2.1, SVG Export Plug-In . SVG Version: 6.00 Build 0)  -->
<svg version="1.1" id="Layer_1" xmlns="http://www.w3.org/2000/svg" xmlns:xlink="http://www.w3.org/1999/xlink" x="0px" y="0px"
	 viewBox="0 0 512 512" style="enable-background:new 0 0 512 512;" xml:space="preserve">
<g>
	<path d="M287.88,234.82c0,2.35,0,4.5,0,6.83c-21.25,0-42.42,0-63.76,0c0-2.25,0-4.45,0-6.83
		C245.29,234.82,266.45,234.82,287.88,234.82z"/>
	<path d="M277.19,252.62c0,2.39,0,4.52,0,6.79c-14.18,0-28.22,0-42.44,0c0-2.25,0-4.45,0-6.79
		C248.9,252.62,262.94,252.62,277.19,252.62z"/>
	<path d="M249.1,270.37c4.64,0,9.18,0,13.82,0c0,2.3,0,4.45,0,6.81c-4.56,0-9.08,0-13.82,0C249.1,275.03,249.1,272.84,249.1,270.37z
		"/>
</g>
</svg>
