<?xml version="1.0" encoding="utf-8"?>
<!-- Generator: Adobe Illustrator 25.2.1, SVG Export Plug-In . SVG Version: 6.00 Build 0)  -->
<svg version="1.1" id="Layer_1" xmlns="http://www.w3.org/2000/svg" xmlns:xlink="http://www.w3.org/1999/xlink" x="0px" y="0px"
	 viewBox="0 0 512 512" style="enable-background:new 0 0 512 512;" xml:space="preserve">
<path d="M277.5,243.04c-11.91,0-23.82,0-36,0c-0.27-1.36-0.22-2.66-0.78-3.59c-0.59-0.98-1.7-2.17-2.7-2.29
	c-2.63-0.32-5.32-0.1-7.98-0.11c-1.51-0.01-2.01,0.77-2.01,2.2c0,1.42,0.49,2.23,2,2.21c1.5-0.01,3.01,0.1,4.5-0.03
	c1.64-0.14,2.29,0.43,2.59,2.11c1.74,9.41,3.57,18.81,5.48,28.19c0.38,1.86,0.4,3.46-0.51,5.25c-1.18,2.33-0.38,4.88,1.57,6.52
	c2.03,1.7,4.68,1.91,6.98,0.55c1.99-1.18,3.07-3.62,2.67-6c-0.11-0.62-0.22-1.25-0.33-1.91c4.45,0,8.73,0,13.09,0
	c-0.06,0.51-0.08,0.84-0.15,1.16c-0.68,3.23,0.32,5.67,2.88,6.97c2.35,1.2,5.13,0.77,6.91-1.07c2.06-2.11,2.25-4.64,0.61-7.53
	c-0.28-0.49-0.59-1.04-0.62-1.58c-0.12-1.96-1.31-2.54-3.02-2.54c-3,0-6,0-9,0c-5.48,0-10.97,0-16.61,0
	c-0.28-1.57-0.51-2.93-0.8-4.59c1.15,0,2.05,0,2.95,0c8.33,0,16.66-0.05,24.99,0.03c2.22,0.02,3.35-0.79,3.8-3
	c1.08-5.38,2.33-10.73,3.47-16.11C282.35,243.73,281.78,243.04,277.5,243.04z M271.61,276.7c1.38,0,2.49,1.12,2.49,2.49
	s-1.12,2.49-2.49,2.49s-2.49-1.12-2.49-2.49S270.23,276.7,271.61,276.7z M247.43,276.7c1.38,0,2.49,1.12,2.49,2.49
	s-1.12,2.49-2.49,2.49s-2.49-1.12-2.49-2.49S246.06,276.7,247.43,276.7z M273.97,261.42c-0.11,0.47-1.01,1.07-1.55,1.07
	c-8.58,0.07-17.15,0.07-25.73,0c-0.54,0-1.44-0.63-1.54-1.1c-1-4.53-1.87-9.09-2.81-13.81c11.64,0,23.02,0,34.66,0
	C275.99,252.26,275.05,256.85,273.97,261.42z"/>
</svg>
