<?xml version="1.0" encoding="utf-8"?>
<!-- Generator: Adobe Illustrator 25.2.1, SVG Export Plug-In . SVG Version: 6.00 Build 0)  -->
<svg version="1.1" id="Layer_1" xmlns="http://www.w3.org/2000/svg" xmlns:xlink="http://www.w3.org/1999/xlink" x="0px" y="0px"
	 viewBox="0 0 512 512" style="enable-background:new 0 0 512 512;" xml:space="preserve">
<path d="M284.28,242.29c0.54-1.63,1.12-3.25,1.62-4.89c0.53-1.71,1.46-2.95,3.41-2.41c1.99,0.55,2.13,2.14,1.59,3.83
	c-1.33,4.21-2.69,8.41-4.06,12.61c-0.64,1.96-2.03,2.66-3.91,1.83c-4.19-1.85-8.33-3.8-12.48-5.75c-1.48-0.69-2.19-1.87-1.51-3.46
	c0.75-1.74,2.18-1.91,3.76-1.23c1.97,0.85,3.9,1.76,6.45,2.93c-0.51-1.49-0.76-2.41-1.13-3.28c-6.15-14.76-23.16-21.81-37.84-15.7
	c-14.82,6.17-21.87,22.99-15.84,37.79c6.04,14.83,22.87,21.99,37.7,16.05c0.08-0.03,0.15-0.06,0.23-0.09c2.97-1.21,4.56-1,5.09,0.8
	c0.76,2.61-1.27,3.28-3.06,4.02c-17.28,7.16-37.38-1.08-44.64-18.29c-7.39-17.51,0.76-37.58,18.28-45.03
	c17.24-7.33,37.28,0.71,44.74,17.95c0.33,0.76,0.66,1.51,1,2.26C283.88,242.25,284.08,242.27,284.28,242.29z"/>
<path d="M248.35,244.58c0-2.83,0.01-5.65,0-8.48c-0.01-1.93,0.79-3.35,2.82-3.39c2.19-0.05,3.01,1.43,3.01,3.46
	c0,4.74-0.08,9.48,0.07,14.22c0.03,1.09,0.65,2.35,1.39,3.19c1.48,1.67,3.23,3.11,4.88,4.63c1.49,1.38,2.04,2.97,0.51,4.55
	c-1.52,1.56-3.14,1.06-4.6-0.32c-2.18-2.06-4.48-3.98-6.52-6.17c-0.81-0.87-1.39-2.26-1.49-3.46
	C248.21,250.08,248.35,247.33,248.35,244.58z"/>
</svg>
