<?xml version="1.0" encoding="utf-8"?>
<!-- Generator: Adobe Illustrator 25.2.1, SVG Export Plug-In . SVG Version: 6.00 Build 0)  -->
<svg version="1.1" id="Layer_1" xmlns="http://www.w3.org/2000/svg" xmlns:xlink="http://www.w3.org/1999/xlink" x="0px" y="0px"
	 viewBox="0 0 512 512" style="enable-background:new 0 0 512 512;" xml:space="preserve">
<style type="text/css">
	.st0{fill:#FFFFFF;}
</style>
<g>
	<path d="M256.01,279.01c-13.07,0-23.08-10.05-23.04-23.13c0.05-12.93,10.06-22.89,23.02-22.89c13.07,0,23.08,10.05,23.04,23.13
		C278.98,269.05,268.97,279,256.01,279.01z M274.91,256.37c0.51-10.02-7.88-18.74-18.55-19.27c-10.04-0.5-18.75,7.88-19.28,18.54
		c-0.5,10.09,7.79,18.7,18.53,19.25C265.65,275.41,274.37,267.03,274.91,256.37z"/>
	<path class="st0" d="M274.91,256.37c-0.54,10.66-9.26,19.03-19.29,18.52c-10.74-0.55-19.03-9.16-18.53-19.25
		c0.52-10.65,9.24-19.04,19.28-18.54C267.03,237.64,275.42,246.35,274.91,256.37z M253.56,250.67c0,2.16-0.09,4.34,0.05,6.49
		c0.05,0.8,0.41,1.84,0.99,2.32c2.12,1.74,4.34,3.38,6.66,4.84c0.54,0.34,1.94,0.12,2.41-0.37c1.89-1.94,1.73-2.69-0.47-4.29
		c-0.88-0.64-1.72-1.34-2.65-1.87c-1.6-0.92-2.27-2.12-2.17-4.06c0.18-3.32-0.01-6.66,0.07-9.99c0.04-1.78-1.07-1.8-2.3-1.75
		c-1.18,0.05-2.65-0.36-2.6,1.69C253.61,246,253.57,248.34,253.56,250.67z"/>
	<path d="M253.57,250.67c0-2.33,0.05-4.66-0.01-6.99c-0.05-2.05,1.42-1.64,2.6-1.69c1.23-0.05,2.34-0.03,2.3,1.75
		c-0.08,3.33,0.11,6.67-0.07,9.99c-0.1,1.93,0.57,3.14,2.17,4.06c0.93,0.54,1.77,1.24,2.65,1.87c2.2,1.6,2.36,2.35,0.47,4.29
		c-0.47,0.48-1.87,0.71-2.41,0.37c-2.32-1.46-4.54-3.1-6.66-4.84c-0.59-0.48-0.94-1.51-0.99-2.32
		C253.48,255,253.56,252.83,253.57,250.67z"/>
</g>
</svg>
