<?xml version="1.0" encoding="utf-8"?>
<!-- Generator: Adobe Illustrator 17.0.0, SVG Export Plug-In . SVG Version: 6.00 Build 0)  -->
<!DOCTYPE svg PUBLIC "-//W3C//DTD SVG 1.1//EN" "http://www.w3.org/Graphics/SVG/1.1/DTD/svg11.dtd">
<svg version="1.1" id="Layer_1" xmlns="http://www.w3.org/2000/svg" xmlns:xlink="http://www.w3.org/1999/xlink" x="0px" y="0px"
	 width="500px" height="500px" viewBox="0 0 500 500" enable-background="new 0 0 500 500" xml:space="preserve">
<path fill="#192132" d="M109.375,365.788h281.25c8.629,0,15.625,6.996,15.625,15.625l0,0c0,8.629-6.996,15.625-15.625,15.625
	h-281.25c-8.629,0-15.625-6.996-15.625-15.625l0,0C93.75,372.783,100.746,365.788,109.375,365.788z"/>
<path fill="#192132" d="M128.125,422.038h243.75c8.629,0,15.625,6.996,15.625,15.625l0,0c0,8.629-6.996,15.625-15.625,15.625
	h-243.75c-8.629,0-15.625-6.996-15.625-15.625l0,0C112.5,429.033,119.496,422.038,128.125,422.038z"/>
<path fill="#192132" d="M265.788,208.862V161.1c-0.245-8.716-7.51-15.582-16.225-15.337c-8.371,0.236-15.101,6.966-15.337,15.337
	v47.762C244.713,207.681,255.3,207.681,265.788,208.862z M360,260.95l33.75-33.75c6.084-6.245,5.954-16.241-0.292-22.325
	c-6.13-5.972-15.903-5.972-22.033,0l-33.75,33.75C345.926,245.21,353.415,252.699,360,260.95z M162.35,238.625l-33.75-33.75
	c-6.238-6.092-16.233-5.974-22.325,0.264c-5.981,6.124-5.992,15.898-0.025,22.036l33.75,33.75
	C146.594,252.681,154.091,245.201,162.35,238.625L162.35,238.625z M250,270.475c37.063,0.004,69.026,26.041,76.525,62.337h31.712
	c-8.737-59.778-64.28-101.155-124.057-92.418c-47.846,6.993-85.424,44.571-92.418,92.418h31.712
	C180.974,296.516,212.937,270.479,250,270.475z"/>
</svg>
