<?xml version="1.0" encoding="utf-8"?>
<!-- Generator: Adobe Illustrator 25.2.1, SVG Export Plug-In . SVG Version: 6.00 Build 0)  -->
<svg version="1.1" id="Layer_1" xmlns="http://www.w3.org/2000/svg" xmlns:xlink="http://www.w3.org/1999/xlink" x="0px" y="0px"
	 viewBox="0 0 512 512" style="enable-background:new 0 0 512 512;" xml:space="preserve">
<style type="text/css">
	.st0{fill:#FFFFFF;}
</style>
<path d="M255.96,235.1c0.92-1,1.59-1.84,2.37-2.58c5.04-4.8,10.91-6.26,17.49-3.97c6.75,2.36,10.44,7.45,11.75,14.31
	c1.49,7.77-1.15,14.54-6.46,19.87c-7.21,7.24-15.04,13.88-22.65,20.72c-1.46,1.32-3.28,1.47-4.79,0.12
	c-8.76-7.77-18.54-14.5-25.48-24.17c-6.22-8.66-5.38-20.59,1.8-27.17c7.42-6.8,18.04-6.2,24.66,1.39
	C255.03,234.06,255.41,234.48,255.96,235.1z M255.99,281.19c7.74-7.2,15.27-13.87,22.38-20.97c4.25-4.25,6.51-9.64,5.63-15.9
	c-0.81-5.8-3.67-10.22-9.32-12.2c-5.57-1.95-10.49-0.6-14.44,3.88c-0.66,0.75-1.23,1.57-1.84,2.36c-1.79,2.31-3.12,2.29-4.92-0.07
	c-0.3-0.4-0.57-0.82-0.87-1.22c-3.44-4.48-7.92-6.65-13.54-5.49c-5.54,1.15-9.06,4.75-10.6,10.15c-2.12,7.41,0.32,13.78,5.48,18.93
	C240.91,267.58,248.3,274.06,255.99,281.19z"/>
<path class="st0" d="M256.03,280.97c-7.69-7.13-15.08-13.61-22.03-20.53c-5.16-5.14-7.59-11.52-5.48-18.93
	c1.54-5.4,5.06-9,10.6-10.15c5.62-1.16,10.1,1.01,13.54,5.49c0.3,0.4,0.57,0.82,0.87,1.22c1.8,2.36,3.13,2.38,4.92,0.07
	c0.61-0.79,1.18-1.61,1.84-2.36c3.95-4.48,8.87-5.84,14.44-3.88c5.65,1.98,8.5,6.4,9.32,12.2c0.88,6.26-1.38,11.65-5.63,15.9
	C271.31,267.1,263.77,273.76,256.03,280.97z"/>
</svg>
