<?xml version="1.0" encoding="utf-8"?>
<!-- Generator: Adobe Illustrator 17.0.0, SVG Export Plug-In . SVG Version: 6.00 Build 0)  -->
<!DOCTYPE svg PUBLIC "-//W3C//DTD SVG 1.1//EN" "http://www.w3.org/Graphics/SVG/1.1/DTD/svg11.dtd">
<svg version="1.1" id="Layer_1" xmlns="http://www.w3.org/2000/svg" xmlns:xlink="http://www.w3.org/1999/xlink" x="0px" y="0px"
	 width="500px" height="500px" viewBox="0 0 500 500" enable-background="new 0 0 500 500" xml:space="preserve">
<path fill="#192132" d="M109.375,365.788h281.25c8.629,0,15.625,6.996,15.625,15.625l0,0c0,8.629-6.996,15.625-15.625,15.625
	h-281.25c-8.629,0-15.625-6.996-15.625-15.625l0,0C93.75,372.783,100.746,365.788,109.375,365.788z"/>
<path fill="#192132" d="M128.125,422.038h243.75c8.629,0,15.625,6.996,15.625,15.625l0,0c0,8.629-6.996,15.625-15.625,15.625
	h-243.75c-8.629,0-15.625-6.996-15.625-15.625l0,0C112.5,429.033,119.496,422.038,128.125,422.038z"/>
<path fill="#192132" d="M265.788,146.362V98.6c0.245-8.716-6.621-15.98-15.337-16.225s-15.98,6.621-16.225,15.337
	c-0.008,0.296-0.008,0.592,0,0.888v47.762C244.713,145.181,255.3,145.181,265.788,146.362z M110.262,270.312H62.5
	c-8.716,0.245-15.582,7.51-15.337,16.225c0.236,8.371,6.966,15.101,15.337,15.337h47.762
	C109.081,291.387,109.081,280.8,110.262,270.312z M437.5,270.312h-47.762c1.182,10.488,1.182,21.075,0,31.562H437.5
	c8.716-0.245,15.582-7.51,15.337-16.225C452.601,277.279,445.871,270.548,437.5,270.312z M360,198.45l33.75-33.75
	c6.084-6.245,5.954-16.241-0.292-22.325c-6.13-5.972-15.903-5.972-22.033,0l-33.75,33.75C345.926,182.71,353.415,190.199,360,198.45
	z M162.35,176.125l-33.75-33.75c-6.238-6.092-16.233-5.974-22.325,0.264c-5.981,6.124-5.992,15.898-0.025,22.036l33.75,33.75
	C146.594,190.181,154.091,182.701,162.35,176.125L162.35,176.125z M171.875,286.1c-0.009-43.147,34.962-78.132,78.109-78.141
	c43.147-0.009,78.132,34.962,78.141,78.109c0.004,16.981-5.526,33.5-15.75,47.057h36.375
	c25.971-54.538,2.813-119.804-51.725-145.775s-119.804-2.813-145.775,51.725c-14.167,29.749-14.167,64.3,0,94.05h36.375
	C177.384,319.589,171.853,303.074,171.875,286.1z"/>
</svg>
