<?xml version="1.0" encoding="utf-8"?>
<!-- Generator: Adobe Illustrator 17.0.0, SVG Export Plug-In . SVG Version: 6.00 Build 0)  -->
<!DOCTYPE svg PUBLIC "-//W3C//DTD SVG 1.1//EN" "http://www.w3.org/Graphics/SVG/1.1/DTD/svg11.dtd">
<svg version="1.1" id="Layer_1" xmlns="http://www.w3.org/2000/svg" xmlns:xlink="http://www.w3.org/1999/xlink" x="0px" y="0px"
	 width="500px" height="500px" viewBox="0 0 500 500" enable-background="new 0 0 500 500" xml:space="preserve">
<path fill="#192132" d="M250,140.625c-60.406,0-109.375,48.969-109.375,109.375S189.594,359.375,250,359.375
	S359.375,310.406,359.375,250S310.406,140.625,250,140.625z M250,328.125c-43.147,0-78.125-34.978-78.125-78.125
	s34.978-78.125,78.125-78.125s78.125,34.978,78.125,78.125l0,0C328.125,293.147,293.147,328.125,250,328.125z M265.788,110.262V62.5
	c0.245-8.716-6.621-15.98-15.337-16.225s-15.98,6.621-16.225,15.337c-0.008,0.296-0.008,0.592,0,0.888v47.762
	C244.713,109.081,255.3,109.081,265.788,110.262z M234.212,389.738V437.5c0.245,8.716,7.51,15.582,16.225,15.337
	c8.371-0.236,15.101-6.966,15.337-15.337v-47.762C255.287,390.919,244.7,390.919,234.212,389.738z M110.262,234.212H62.5
	c-8.716,0.245-15.582,7.51-15.337,16.225c0.236,8.371,6.966,15.101,15.337,15.337h47.762
	C109.081,255.287,109.081,244.7,110.262,234.212z M437.5,234.212h-47.762c1.182,10.488,1.182,21.075,0,31.562H437.5
	c8.716-0.245,15.582-7.51,15.337-16.225C452.601,241.179,445.871,234.448,437.5,234.212z M140,337.65l-33.75,33.75
	c-6.172,6.165-6.177,16.166-0.013,22.337c6.165,6.172,16.166,6.177,22.338,0.013l0,0l33.75-33.75
	C154.072,353.407,146.584,345.91,140,337.65z M360,162.35l33.75-33.75c6.172-6.165,6.177-16.166,0.013-22.337
	s-16.166-6.177-22.337-0.013l0,0L337.675,140C345.928,146.593,353.416,154.09,360,162.35z M162.35,140l-33.75-33.75
	c-6.165-6.172-16.166-6.177-22.338-0.013c-6.172,6.165-6.177,16.166-0.013,22.338l33.75,33.75
	C146.593,154.072,154.09,146.584,162.35,140z M337.65,360l33.75,33.75c6.165,6.172,16.166,6.177,22.337,0.013
	s6.177-16.166,0.013-22.337L360,337.675C353.407,345.928,345.91,353.416,337.65,360z"/>
</svg>
