<?xml version="1.0" encoding="utf-8"?>
<!-- Generator: Adobe Illustrator 25.2.1, SVG Export Plug-In . SVG Version: 6.00 Build 0)  -->
<svg version="1.1" id="Layer_1" xmlns="http://www.w3.org/2000/svg" xmlns:xlink="http://www.w3.org/1999/xlink" x="0px" y="0px"
	 viewBox="0 0 512 512" style="enable-background:new 0 0 512 512;" xml:space="preserve">
<path d="M274.86,257.52c-3.89,6.89-8.16,13.57-12.4,20.25c-2.96,4.66-7.1,4.62-10.07-0.07c-4.23-6.69-8.27-13.5-12.49-20.2
	c-8.42-13.37,0.75-30.21,15.56-31.75c11.89-1.24,22.81,8.65,22.77,21.16C278.1,251.51,276.66,254.33,274.86,257.52z M257.47,276.48
	c1.54,0,9.65-15.58,13.91-23.2c3.73-6.67,1.75-14.17-4.55-19.35c-5.08-4.18-13.4-4.26-18.56-0.18c-6.34,5.02-8.56,12.63-4.89,19.27
	C247.59,260.6,255.93,276.48,257.47,276.48z"/>
<path d="M257.34,237.81c4.64-0.06,8.71,3.95,8.72,8.59c0.01,4.55-3.82,8.52-8.37,8.66c-4.64,0.14-8.76-3.78-8.87-8.44
	C248.72,241.97,252.68,237.88,257.34,237.81z"/>
</svg>
