<?xml version="1.0" encoding="utf-8"?>
<!-- Generator: Adobe Illustrator 17.0.0, SVG Export Plug-In . SVG Version: 6.00 Build 0)  -->
<!DOCTYPE svg PUBLIC "-//W3C//DTD SVG 1.1//EN" "http://www.w3.org/Graphics/SVG/1.1/DTD/svg11.dtd">
<svg version="1.1" id="Layer_1" xmlns="http://www.w3.org/2000/svg" xmlns:xlink="http://www.w3.org/1999/xlink" x="0px" y="0px"
	 width="500px" height="500px" viewBox="0 0 500 500" enable-background="new 0 0 500 500" xml:space="preserve">
<path fill="#192132" d="M437.5,234.212h-47.762c1.182,10.488,1.182,21.075,0,31.562H437.5c8.716-0.245,15.582-7.51,15.337-16.225
	C452.601,241.179,445.871,234.448,437.5,234.212z M360,162.35l33.75-33.75c6.172-6.165,6.177-16.166,0.013-22.337
	s-16.166-6.177-22.337-0.013l0,0L337.675,140C345.928,146.593,353.416,154.09,360,162.35z M337.65,360l33.75,33.75
	c6.165,6.172,16.166,6.177,22.337,0.013s6.177-16.166,0.013-22.337L360,337.675C353.407,345.928,345.91,353.416,337.65,360z
	 M250,46.712c-8.719,0-15.788,7.068-15.788,15.787l0,0v375c0.245,8.716,7.51,15.582,16.225,15.337
	c8.371-0.236,15.101-6.966,15.337-15.337v-375C265.775,53.786,258.714,46.719,250,46.712z M359.375,250
	c0.009-42.066-24.106-80.411-62.025-98.625v36.5c34.311,26.139,40.935,75.144,14.795,109.455
	c-4.246,5.573-9.222,10.55-14.795,14.795v36.5C335.269,330.411,359.384,292.066,359.375,250z M140.625,250
	c-0.004,42.282,24.36,80.78,62.575,98.875v-197.75C164.985,169.22,140.621,207.718,140.625,250z"/>
</svg>
