<?xml version="1.0" encoding="utf-8"?>
<!-- Generator: Adobe Illustrator 25.2.1, SVG Export Plug-In . SVG Version: 6.00 Build 0)  -->
<svg version="1.1" id="Layer_1" xmlns="http://www.w3.org/2000/svg" xmlns:xlink="http://www.w3.org/1999/xlink" x="0px" y="0px"
	 viewBox="0 0 512 512" style="enable-background:new 0 0 512 512;" xml:space="preserve">
<path d="M258.68,255.77c4.54,4.48,8.5,8.38,12.69,12.51c-1.07,0.99-1.97,1.82-3.08,2.85c-3.87-4.14-7.65-8.2-11.59-12.42
	c-4.46,4.56-8.39,8.57-12.56,12.84c-1.25-1.35-2.07-2.25-3.13-3.4c4.15-3.86,8.21-7.63,12.48-11.61
	c-4.57-4.46-8.58-8.39-12.85-12.57c1.34-1.23,2.24-2.05,3.26-2.98c3.94,4.06,7.81,8.05,11.83,12.19c4.18-4.45,7.97-8.5,11.94-12.73
	c1.55,1.43,2.49,2.29,3.58,3.3C267.09,247.72,263.08,251.56,258.68,255.77z"/>
</svg>
